<svg width="139" height="54" viewBox="0 0 139 54" fill="none" xmlns="http://www.w3.org/2000/svg">
<path d="M10.25 10.2748C18.5569 10.407 25.2864 17.1189 25.4186 25.4515H10.25V10.2748Z" fill="#3AADA8" stroke="#F9F9F9" stroke-width="0.5"/>
<path d="M10.252 25.906H25.4206V41.0828C17.1136 40.9505 10.3842 34.2387 10.252 25.906Z" fill="#557C83" stroke="#F9F9F9" stroke-width="0.5"/>
<path d="M25.9888 10.252C34.3168 10.3843 41.0253 17.1172 41.1574 25.4288H25.9888V10.252Z" fill="#557C83" stroke="#F9F9F9" stroke-width="0.5"/>
<path d="M41.1574 25.906C41.0252 34.2387 34.2958 40.9505 25.9888 41.0828V25.906H41.1574Z" fill="#3AADA8" stroke="#F9F9F9" stroke-width="0.5"/>
<path d="M55.2952 36.0023C54.7132 36.0023 54.2115 35.7956 53.79 35.3822C53.3886 34.9688 53.1879 34.4767 53.1879 33.9058V17.99C53.1879 17.0057 53.5191 16.2774 54.1813 15.8049C54.8436 15.3128 55.8571 15.0667 57.2218 15.0667V32.577H65.3498C66.2931 32.577 67.0055 32.8723 67.4872 33.4629C67.9688 34.0337 68.2097 34.8802 68.2097 36.0023H55.2952Z" fill="#557C83"/>
<path d="M77.1657 36.2681C75.5201 36.2681 74.0149 35.9531 72.6502 35.3231C71.2855 34.6735 70.2018 33.7975 69.399 32.6951C68.6163 31.5927 68.2249 30.3919 68.2249 29.0927V22.2126C68.2249 20.9133 68.6163 19.7223 69.399 18.6396C70.2018 17.5372 71.2855 16.6711 72.6502 16.0411C74.0149 15.3915 75.5201 15.0667 77.1657 15.0667C78.8114 15.0667 80.3166 15.3915 81.6813 16.0411C83.0661 16.6711 84.1498 17.5372 84.9325 18.6396C85.7352 19.7223 86.1366 20.9133 86.1366 22.2126V29.0927C86.1366 30.3919 85.7352 31.5927 84.9325 32.6951C84.1498 33.7975 83.0661 34.6735 81.6813 35.3231C80.3166 35.9531 78.8114 36.2681 77.1657 36.2681ZM77.1657 32.8132C78.6709 32.8132 79.8751 32.4687 80.7782 31.7797C81.6813 31.0711 82.1328 30.1557 82.1328 29.0336V22.3012C82.1328 21.1594 81.6813 20.244 80.7782 19.555C79.8751 18.8463 78.6709 18.492 77.1657 18.492C75.6806 18.492 74.4865 18.8463 73.5834 19.555C72.6803 20.244 72.2287 21.1594 72.2287 22.3012V29.0336C72.2287 30.1557 72.6803 31.0711 73.5834 31.7797C74.4865 32.4687 75.6806 32.8132 77.1657 32.8132Z" fill="#557C83"/>
<path d="M97.7235 36.2681C95.9373 36.2681 94.3418 35.9334 92.937 35.2641C91.5522 34.5948 90.4685 33.6597 89.6858 32.4589C88.9031 31.2581 88.5118 29.8899 88.5118 28.3545V22.9212C88.5118 21.3858 88.8931 20.0275 89.6557 18.8463C90.4384 17.6455 91.5121 16.7203 92.8768 16.0707C94.2415 15.4014 95.8069 15.0667 97.573 15.0667C99.339 15.0667 100.904 15.3325 102.269 15.864C103.654 16.3758 104.728 17.0943 105.49 18.0195C106.253 18.9448 106.634 20.0078 106.634 21.2086C106.634 21.937 106.383 22.5079 105.882 22.9212C105.4 23.3346 104.748 23.5413 103.925 23.5413C103.523 23.5413 103.082 23.4823 102.6 23.3642C102.64 22.8917 102.66 22.4291 102.66 21.9763C102.66 20.933 102.189 20.0865 101.246 19.4369C100.302 18.7873 99.0781 18.4625 97.573 18.4625C96.0878 18.4625 94.8737 18.8759 93.9304 19.7027C93.0072 20.5295 92.5457 21.6023 92.5457 22.9212V28.3545C92.5457 29.6734 93.0273 30.7561 93.9906 31.6026C94.9539 32.4491 96.1982 32.8723 97.7235 32.8723C99.2086 32.8723 100.413 32.5376 101.336 31.8683C102.279 31.1793 102.751 30.2935 102.751 29.2108V28.2954H100.162C99.3993 28.2954 98.7771 28.01 98.2955 27.4391C97.8138 26.8485 97.573 26.0906 97.573 25.1654H104.888C105.45 25.1654 105.902 25.3327 106.243 25.6674C106.584 26.002 106.755 26.445 106.755 26.9962V29.2994C106.755 30.6577 106.373 31.8683 105.611 32.9314C104.848 33.9747 103.774 34.7916 102.39 35.3822C101.025 35.9728 99.4695 36.2681 97.7235 36.2681Z" fill="#557C83"/>
<path d="M118.029 36.2681C116.383 36.2681 114.878 35.9531 113.514 35.3231C112.149 34.6735 111.065 33.7975 110.262 32.6951C109.48 31.5927 109.088 30.3919 109.088 29.0927V22.2126C109.088 20.9133 109.48 19.7223 110.262 18.6396C111.065 17.5372 112.149 16.6711 113.514 16.0411C114.878 15.3915 116.383 15.0667 118.029 15.0667C119.675 15.0667 121.18 15.3915 122.545 16.0411C123.929 16.6711 125.013 17.5372 125.796 18.6396C126.599 19.7223 127 20.9133 127 22.2126V29.0927C127 30.3919 126.599 31.5927 125.796 32.6951C125.013 33.7975 123.929 34.6735 122.545 35.3231C121.18 35.9531 119.675 36.2681 118.029 36.2681ZM118.029 32.8132C119.534 32.8132 120.738 32.4687 121.642 31.7797C122.545 31.0711 122.996 30.1557 122.996 29.0336V22.3012C122.996 21.1594 122.545 20.244 121.642 19.555C120.738 18.8463 119.534 18.492 118.029 18.492C116.544 18.492 115.35 18.8463 114.447 19.555C113.544 20.244 113.092 21.1594 113.092 22.3012V29.0336C113.092 30.1557 113.544 31.0711 114.447 31.7797C115.35 32.4687 116.544 32.8132 118.029 32.8132Z" fill="#557C83"/>
<rect x="0.75" y="0.75" width="135.5" height="50.5" stroke="url(#paint0_linear_278_1381)" stroke-width="1.5"/>
<rect x="2.5" y="2.5" width="136" height="51" stroke="url(#paint1_linear_278_1381)"/>
<defs>
<linearGradient id="paint0_linear_278_1381" x1="94.8462" y1="-32.9333" x2="7.53677" y2="48.3287" gradientUnits="userSpaceOnUse">
<stop stop-color="white"/>
<stop offset="0.494" stop-color="#557C83"/>
<stop offset="1" stop-color="white"/>
</linearGradient>
<linearGradient id="paint1_linear_278_1381" x1="96.8462" y1="-30.9333" x2="9.53677" y2="50.3287" gradientUnits="userSpaceOnUse">
<stop stop-color="white"/>
<stop offset="0.494" stop-color="#557C83"/>
<stop offset="1" stop-color="white"/>
</linearGradient>
</defs>
</svg>
