<svg width="24" height="25" viewBox="0 0 24 25" fill="none" xmlns="http://www.w3.org/2000/svg">
  <path d="M3 6.88597C3 6.40152 3.34538 6.00879 3.77143 6.00879L6.43567 6.00832C6.96502 5.99306 7.43202 5.61033 7.61214 5.04412C7.61688 5.02923 7.62232 5.01087 7.64185 4.94424L7.75665 4.55256C7.8269 4.31241 7.8881 4.10318 7.97375 3.91617C8.31209 3.17736 8.93808 2.66432 9.66147 2.53297C9.84457 2.49972 10.0385 2.49986 10.2611 2.50002H13.7391C13.9617 2.49986 14.1556 2.49972 14.3387 2.53297C15.0621 2.66432 15.6881 3.17736 16.0264 3.91617C16.1121 4.10318 16.1733 4.31241 16.2435 4.55256L16.3583 4.94424C16.3778 5.01087 16.3833 5.02923 16.388 5.04412C16.5682 5.61033 17.1278 5.99353 17.6571 6.00879H20.2286C20.6546 6.00879 21 6.40152 21 6.88597C21 7.37043 20.6546 7.76316 20.2286 7.76316H3.77143C3.34538 7.76316 3 7.37043 3 6.88597Z" fill="#FF5F5F" />
  <path fill-rule="evenodd" clip-rule="evenodd" d="M11.5956 22.5001H12.4044C15.1871 22.5001 16.5785 22.5001 17.4831 21.6142C18.3878 20.7283 18.4803 19.2751 18.6654 16.3686L18.9321 12.1807C19.0326 10.6037 19.0828 9.81524 18.6289 9.31558C18.1751 8.81592 17.4087 8.81592 15.876 8.81592H8.12404C6.59127 8.81592 5.82488 8.81592 5.37105 9.31558C4.91722 9.81524 4.96744 10.6037 5.06788 12.1807L5.33459 16.3686C5.5197 19.2751 5.61225 20.7283 6.51689 21.6142C7.42153 22.5001 8.81289 22.5001 11.5956 22.5001ZM10.2463 12.6886C10.2051 12.2548 9.83753 11.9382 9.42537 11.9816C9.01321 12.025 8.71251 12.4119 8.75372 12.8457L9.25372 18.1089C9.29494 18.5427 9.66247 18.8593 10.0746 18.8159C10.4868 18.7725 10.7875 18.3856 10.7463 17.9518L10.2463 12.6886ZM14.5746 11.9816C14.9868 12.025 15.2875 12.4119 15.2463 12.8457L14.7463 18.1089C14.7051 18.5427 14.3375 18.8593 13.9254 18.8159C13.5132 18.7725 13.2125 18.3856 13.2537 17.9518L13.7537 12.6886C13.7949 12.2548 14.1625 11.9382 14.5746 11.9816Z" fill="#FF5F5F" />
</svg>