<svg width="24" height="25" viewBox="0 0 24 25" fill="none" xmlns="http://www.w3.org/2000/svg">
  <path fill-rule="evenodd" clip-rule="evenodd" d="M12 22.5C7.28595 22.5 4.92893 22.5 3.46447 21.0355C2 19.5711 2 17.214 2 12.5C2 7.78595 2 5.42893 3.46447 3.96447C4.92893 2.5 7.28595 2.5 12 2.5C16.714 2.5 19.0711 2.5 20.5355 3.96447C22 5.42893 22 7.78595 22 12.5C22 17.214 22 19.5711 20.5355 21.0355C19.0711 22.5 16.714 22.5 12 22.5ZM8.96965 9.46967C9.26254 9.17678 9.73742 9.17678 10.0303 9.46967L12 11.4394L13.9696 9.46969C14.2625 9.1768 14.7374 9.1768 15.0303 9.46969C15.3232 9.76258 15.3232 10.2375 15.0303 10.5303L13.0606 12.5L15.0303 14.4697C15.3232 14.7625 15.3232 15.2374 15.0303 15.5303C14.7374 15.8232 14.2625 15.8232 13.9696 15.5303L12 13.5607L10.0303 15.5303C9.73744 15.8232 9.26256 15.8232 8.96967 15.5303C8.67678 15.2374 8.67678 14.7626 8.96967 14.4697L10.9393 12.5L8.96965 10.5303C8.67676 10.2374 8.67676 9.76256 8.96965 9.46967Z" fill="#FF5F5F" />
</svg>