<svg width="24" height="25" viewBox="0 0 24 25" fill="none" xmlns="http://www.w3.org/2000/svg">
  <path d="M11.4001 18.6612L11.4001 18.6612L18.796 11.2653C17.7894 10.8464 16.5972 10.1582 15.4697 9.03068C14.342 7.90298 13.6537 6.71058 13.2348 5.7039L5.83882 13.0999L5.83879 13.0999C5.26166 13.6771 4.97307 13.9657 4.7249 14.2838C4.43213 14.6592 4.18114 15.0653 3.97634 15.495C3.80273 15.8593 3.67368 16.2465 3.41556 17.0208L2.05445 21.1042C1.92743 21.4852 2.0266 21.9053 2.31063 22.1894C2.59466 22.4734 3.01478 22.5726 3.39584 22.4456L7.47918 21.0844C8.25351 20.8263 8.6407 20.6973 9.00498 20.5237C9.43469 20.3189 9.84082 20.0679 10.2162 19.7751C10.5343 19.5269 10.823 19.2383 11.4001 18.6612Z" fill="#9F9F9F" />
  <path d="M20.8482 9.21306C22.3839 7.67735 22.3839 5.18748 20.8482 3.65178C19.3125 2.11607 16.8226 2.11607 15.2869 3.65178L14.3999 4.53882C14.4121 4.5755 14.4246 4.61268 14.4377 4.65035C14.7628 5.5875 15.3763 6.81601 16.5303 7.97002C17.6843 9.12403 18.9128 9.73749 19.85 10.0626C19.8875 10.0756 19.9245 10.0882 19.961 10.1003L20.8482 9.21306Z" fill="#9F9F9F" />
</svg>