<svg width="60" height="60" viewBox="0 0 60 60" fill="none" xmlns="http://www.w3.org/2000/svg">
  <path d="M54.9994 31.7446C54.9957 35.4186 54.9677 38.5412 54.7589 41.1036C54.5167 44.0769 54.0202 46.5615 52.909 48.625C52.4189 49.5351 51.8167 50.3501 51.0834 51.0834C49.0025 53.1644 46.3512 54.107 42.9914 54.5587C39.7089 55.0001 35.5018 55 30.1334 55H29.8666C24.4982 55 20.2911 55.0001 17.0086 54.5587C13.6488 54.107 10.9975 53.1644 8.9166 51.0834C7.07176 49.2386 6.11907 46.9424 5.61244 44.094C5.11477 41.2959 5.02373 37.8147 5.00481 33.4918C5 32.3922 5 31.2293 5 30.0023V29.8666C4.99997 24.4982 4.99995 20.2911 5.44127 17.0086C5.89299 13.6488 6.83564 10.9976 8.9166 8.9166C10.9976 6.83564 13.6488 5.89299 17.0086 5.44127C19.9278 5.0488 23.6837 5.00537 28.2551 5.00059C29.2184 4.99958 30 5.7809 30 6.74418C30 7.70747 29.218 8.48799 28.2547 8.48901C23.6187 8.49391 20.1688 8.53616 17.4734 8.89854C14.5004 9.29825 12.708 10.0585 11.3832 11.3832C10.0585 12.708 9.29825 14.5004 8.89854 17.4734C8.49208 20.4966 8.48837 24.4692 8.48837 30C8.48837 30.6754 8.48837 31.3286 8.48917 31.9611L10.8174 29.9239C12.9366 28.0696 16.1306 28.1759 18.1218 30.1671L28.0979 40.1432C29.6961 41.7414 32.2119 41.9593 34.0612 40.6597L34.7546 40.1724C37.4157 38.3022 41.0159 38.5189 43.4334 40.6947L50.016 46.619C50.6785 45.2275 51.0719 43.3993 51.2821 40.8203C51.4801 38.3902 51.5073 35.4387 51.511 31.7447C51.512 30.7814 52.2925 30 53.2558 30C54.2191 30 55.0004 30.7813 54.9994 31.7446Z" fill="#3AADA8" />
  <path fill-rule="evenodd" clip-rule="evenodd" d="M43.75 27.5C38.4467 27.5 35.795 27.5 34.1475 25.8525C32.5 24.2049 32.5 21.5533 32.5 16.25C32.5 10.9467 32.5 8.29505 34.1475 6.64752C35.795 5 38.4467 5 43.75 5C49.0533 5 51.7049 5 53.3525 6.64752C55 8.29505 55 10.9467 55 16.25C55 21.5533 55 24.2049 53.3525 25.8525C51.7049 27.5 49.0533 27.5 43.75 27.5ZM45.625 11.25C45.625 10.2145 44.7855 9.375 43.75 9.375C42.7145 9.375 41.875 10.2145 41.875 11.25V14.375H38.75C37.7145 14.375 36.875 15.2145 36.875 16.25C36.875 17.2855 37.7145 18.125 38.75 18.125H41.875V21.25C41.875 22.2855 42.7145 23.125 43.75 23.125C44.7855 23.125 45.625 22.2855 45.625 21.25V18.125H48.75C49.7855 18.125 50.625 17.2855 50.625 16.25C50.625 15.2145 49.7855 14.375 48.75 14.375H45.625V11.25Z" fill="#3AADA8" />
</svg>