<svg width="24" height="24" viewBox="0 0 24 24" fill="none" xmlns="http://www.w3.org/2000/svg">
  <g clip-path="url(#clip0_613_1633)">
    <path d="M9.22797 22.4055L14.8601 22.4054C15.1893 22.4054 15.5091 22.3966 15.8105 22.3791C16.1142 22.3614 16.4106 22.3344 16.6914 22.2987C16.9716 22.2631 17.245 22.2177 17.504 22.1635C17.7613 22.1097 18.0122 22.0454 18.2493 21.9722C18.48 21.9015 18.7068 21.8186 18.9288 21.7239C19.1395 21.6339 19.3446 21.5315 19.5432 21.4174C19.7344 21.3072 19.9183 21.1849 20.0939 21.0513C20.2657 20.9202 20.4287 20.7778 20.5817 20.625C20.7344 20.4719 20.8768 20.3089 21.0081 20.137C21.1415 19.9613 21.2636 19.7773 21.3738 19.5861C21.488 19.3875 21.5904 19.1823 21.6803 18.9716C21.775 18.7496 21.8579 18.5227 21.9287 18.2919C22.0013 18.0558 22.0656 17.8049 22.1197 17.5464C22.1733 17.2903 22.2188 17.017 22.2549 16.7336C22.2903 16.4554 22.3172 16.159 22.3353 15.8527C22.3527 15.5476 22.3616 15.2278 22.3616 14.9022V9.09471C22.3616 8.76909 22.3526 8.44928 22.3353 8.14425C22.3172 7.83792 22.2903 7.54153 22.2549 7.26331C22.2186 6.97907 22.1732 6.70556 22.1197 6.45044C22.0659 6.193 22.0017 5.94215 21.9287 5.70476C21.8578 5.47406 21.7749 5.24724 21.6803 5.02524C21.5904 4.81453 21.488 4.60933 21.3738 4.4107C21.2637 4.21954 21.1416 4.03559 21.0081 3.85996C20.877 3.68796 20.7345 3.52492 20.5817 3.37193C20.4287 3.21907 20.2657 3.07655 20.0939 2.94531C19.9182 2.81184 19.7343 2.68962 19.5432 2.57941C19.3446 2.46531 19.1394 2.36296 18.9288 2.2729C18.7068 2.17819 18.48 2.0953 18.2493 2.02458C18.0142 1.95182 17.7635 1.88755 17.504 1.83327C17.246 1.77931 16.9726 1.7338 16.6914 1.698C16.4094 1.66235 16.113 1.63528 15.8105 1.61779C15.5066 1.60018 15.1868 1.59119 14.8601 1.59119H9.22819C9.03812 1.59725 8.85785 1.67708 8.72561 1.81374C8.59337 1.95041 8.51956 2.13319 8.51976 2.32336C8.51973 2.41815 8.5384 2.51201 8.57471 2.59957C8.61101 2.68713 8.66422 2.76666 8.73132 2.83362C8.79841 2.90058 8.87806 2.95364 8.96569 2.98977C9.05332 3.0259 9.14721 3.04439 9.242 3.04417C9.25549 3.04415 9.26892 3.04378 9.28224 3.04307H14.8601C16.0031 3.04307 16.9281 3.14717 17.6877 3.36135C18.4714 3.58255 19.0832 3.9211 19.5581 4.39653C20.0331 4.87152 20.3714 5.48356 20.592 6.26755C20.8059 7.02678 20.9098 7.95162 20.9098 9.0948V14.9023C20.9098 16.0454 20.8059 16.9701 20.592 17.7293C20.3715 18.5131 20.0331 19.125 19.5581 19.6005C19.0831 20.0761 18.4714 20.4145 17.6877 20.6354C16.9281 20.8496 16.0031 20.9537 14.8601 20.9537H9.28622C9.27184 20.9528 9.25738 20.9524 9.24285 20.9524C9.0501 20.9545 8.866 21.0327 8.73055 21.1698C8.59511 21.307 8.51929 21.492 8.51953 21.6848C8.51947 21.8738 8.59371 22.0553 8.72623 22.1901C8.85876 22.325 9.03895 22.4023 9.22797 22.4055Z" fill="#557C83" />
    <path d="M7.35754 12.7241C7.35754 12.7241 7.35754 12.28 7.35754 11.9954C7.35754 11.7154 7.35754 11.2783 7.35754 11.2783H2.4489C2.42961 11.2767 2.41008 11.2759 2.39034 11.2759C2.19759 11.278 2.01349 11.3562 1.87804 11.4933C1.7426 11.6305 1.66675 11.8156 1.66699 12.0083C1.66697 12.1031 1.68564 12.197 1.72194 12.2845C1.75825 12.3721 1.81146 12.4516 1.87855 12.5186C1.94565 12.5855 2.02529 12.6386 2.11293 12.6747C2.20056 12.7109 2.29447 12.7293 2.38926 12.7291C2.41801 12.7291 2.44673 12.7275 2.47528 12.7241H7.35754Z" fill="#557C83" />
    <path d="M7.35757 14.1624C7.35757 15.688 7.90927 16.8485 8.90744 17.4246C9.33869 17.6744 9.82931 17.8033 10.3276 17.7978C11.0093 17.7978 11.7559 17.5787 12.5106 17.1404L16.2678 14.9738C17.5905 14.2028 18.3208 13.1478 18.3208 11.9955C18.3208 10.8432 17.5905 9.78827 16.2678 9.02554L12.5106 6.8588C11.1879 6.096 9.91379 5.99052 8.90753 6.56675C8.59359 6.74812 8.319 6.99029 8.09981 7.27909C7.61489 7.91529 7.35754 8.78695 7.35754 9.82893L7.35757 12.0025V14.1624Z" fill="#3AADA8" />
  </g>
  <defs>
    <clipPath id="clip0_613_1633">
      <rect width="24" height="24" fill="white" />
    </clipPath>
  </defs>
</svg>