<svg width="24" height="25" viewBox="0 0 24 25" fill="none" xmlns="http://www.w3.org/2000/svg">
  <path fill-rule="evenodd" clip-rule="evenodd" d="M12 22.5C7.28595 22.5 4.92893 22.5 3.46447 21.0355C2 19.5711 2 17.214 2 12.5C2 7.78595 2 5.42893 3.46447 3.96447C4.92893 2.5 7.28595 2.5 12 2.5C16.714 2.5 19.0711 2.5 20.5355 3.96447C22 5.42893 22 7.78595 22 12.5C22 17.214 22 19.5711 20.5355 21.0355C19.0711 22.5 16.714 22.5 12 22.5ZM16.0303 9.46967C16.3232 9.76256 16.3232 10.2374 16.0303 10.5303L11.0303 15.5303C10.7374 15.8232 10.2626 15.8232 9.96967 15.5303L7.96967 13.5303C7.67678 13.2374 7.67678 12.7626 7.96967 12.4697C8.26256 12.1768 8.73744 12.1768 9.03033 12.4697L10.5 13.9393L14.9697 9.46967C15.2626 9.17678 15.7374 9.17678 16.0303 9.46967Z" fill="#3AADA8" />
</svg>