<svg width="32" height="32" viewBox="0 0 32 32" fill="none" xmlns="http://www.w3.org/2000/svg">
  <path d="M27.3797 4.61928C25.4271 2.66666 22.2844 2.66666 15.999 2.66666C9.71363 2.66666 6.57094 2.66666 4.61831 4.61928C3.60833 5.62926 3.12075 6.95764 2.88538 8.87463C3.59293 8.08708 4.4431 7.43103 5.39777 6.9446C6.43975 6.41369 7.55548 6.19839 8.79084 6.09746C9.98435 5.99995 11.4529 5.99997 13.2486 5.99999H18.7495C20.5451 5.99997 22.0137 5.99995 23.2072 6.09746C24.4426 6.19839 25.5583 6.41369 26.6003 6.9446C27.555 7.43103 28.4051 8.08708 29.1127 8.87463C28.8773 6.95764 28.3897 5.62926 27.3797 4.61928Z" fill="#3AADA8" />
  <path fill-rule="evenodd" clip-rule="evenodd" d="M2.66663 18.6667C2.66663 14.933 2.66663 13.0661 3.39325 11.6401C4.0324 10.3856 5.05228 9.36578 6.30669 8.72662C7.73277 8 9.59961 8 13.3333 8H18.6666C22.4003 8 24.2671 8 25.6932 8.72662C26.9476 9.36578 27.9675 10.3856 28.6067 11.6401C29.3333 13.0661 29.3333 14.933 29.3333 18.6667C29.3333 22.4004 29.3333 24.2672 28.6067 25.6933C27.9675 26.9477 26.9476 27.9676 25.6932 28.6067C24.2671 29.3333 22.4003 29.3333 18.6666 29.3333H13.3333C9.59961 29.3333 7.73277 29.3333 6.30669 28.6067C5.05228 27.9676 4.0324 26.9477 3.39325 25.6933C2.66663 24.2672 2.66663 22.4004 2.66663 18.6667ZM16.7071 13.9596C16.5195 13.772 16.2652 13.6667 16 13.6667C15.7347 13.6667 15.4804 13.772 15.2929 13.9596L11.9595 17.2929C11.569 17.6834 11.569 18.3166 11.9595 18.7071C12.35 19.0976 12.9832 19.0976 13.3737 18.7071L15 17.0809V22.6667C15 23.219 15.4477 23.6667 16 23.6667C16.5522 23.6667 17 23.219 17 22.6667V17.0809L18.6262 18.7071C19.0167 19.0976 19.6499 19.0976 20.0404 18.7071C20.4309 18.3166 20.4309 17.6834 20.0404 17.2929L16.7071 13.9596Z" fill="#3AADA8" />
</svg>